<svg id="_1401609614240" xmlns="http://www.w3.org/2000/svg" width="122" height="46.657" viewBox="0 0 122 46.657">
  <path id="Контур_270" data-name="Контур 270" d="M1239.254,397.055H1234.8v-5.641h-5.3v5.641H1225V382.267h4.5v5.222h5.3v-5.222h4.459Zm19.438-1.868a8.2,8.2,0,0,1-5.755,2.134,8.3,8.3,0,0,1-5.793-2.134,7.731,7.731,0,0,1,0-11.053,8.3,8.3,0,0,1,5.793-2.134,8.2,8.2,0,0,1,5.755,2.134,7.731,7.731,0,0,1,0,11.053Zm-8.309-2.9a3.23,3.23,0,0,0,2.554,1.067,3.284,3.284,0,0,0,2.554-1.067,3.689,3.689,0,0,0,.991-2.63,3.821,3.821,0,0,0-.991-2.63,3.284,3.284,0,0,0-2.554-1.067,3.23,3.23,0,0,0-2.554,1.067,3.653,3.653,0,0,0-.991,2.63A3.533,3.533,0,0,0,1250.383,392.291Zm29.462,4.764h-5.107l-2.058-4.65h-1.6v4.65h-4.5V382.267h7.89a5.094,5.094,0,0,1,3.926,1.448,4.912,4.912,0,0,1,1.41,3.621,5.146,5.146,0,0,1-.762,2.858,5.547,5.547,0,0,1-1.906,1.639Zm-6.06-8.575a1.68,1.68,0,0,0,1.067-.3.987.987,0,0,0,.419-.877,1.012,1.012,0,0,0-.419-.839,1.95,1.95,0,0,0-1.067-.3h-2.706v2.325Zm18.447,8.575H1285.6V382.267h6.594a8.656,8.656,0,0,1,5.87,1.944,6.808,6.808,0,0,1,2.249,5.45,6.728,6.728,0,0,1-2.249,5.412A8.455,8.455,0,0,1,1292.232,397.055Zm-.038-3.888a3.395,3.395,0,0,0,3.583-3.506,3.236,3.236,0,0,0-3.544-3.506h-2.172v7.013Z" transform="translate(-1178.311 -366.342)" fill="#ebecec"/>
  <path id="Контур_271" data-name="Контур 271" d="M23.859,24.278c2.554-.648,7.394-1.143,7.432.419C31.329,26.3,26.641,24.24,23.859,24.278ZM25,28.089c3.849-3.964,8.728-.038,7.813,3.659-.152.61-1.791-.838-2.744-.229-2.02,1.448-1.868-1.334-.686-1.258-.838-.419-1.486.61-1.829,1.334a.807.807,0,0,1-1.525.076c-.419-.724.381-2.82,1.677-3.163-1.944-.267-3.278,2.1-3.24,3.811a3.568,3.568,0,0,1-1.448-3.545c-1.067.5-1.105,3.163-.762,4.231-1.143-.229-1.944-1.715-2.02-3.316-.267-3.583,3.278-5.6,6.517-3.659A2.883,2.883,0,0,0,25,28.089Zm5.488,10.9a6.54,6.54,0,0,0,1.3.267A10.378,10.378,0,0,0,35.56,46.65c-3.583.114-5.946-1.22-7.013-3.964A5.68,5.68,0,0,0,26.87,45.2c-4.726.267-7.928-2.325-9.528-7.7a18.077,18.077,0,0,0,.3,6.212c-6.4-2.706-6.136-9.566-6.022-12.844A28.7,28.7,0,0,0,21.915,37.16c.61,2.4.915,3.621.915,3.621.991-.953,1.486-1.448,1.486-1.448a14.5,14.5,0,0,0,4.269.152,7.659,7.659,0,0,0,1.486,2.134A10.554,10.554,0,0,1,30.49,38.99ZM22.22,36.131c.267-.191.534-.343.8-.534l-.152.076c3.354-2.63,4.192-3.163,5.946-2.82-.61.038-.991.229-1.105.5,1.639-.381,2.858-.343,3.621.152.534.381.534.991,0,1.868a.888.888,0,0,0-.076-.877c-.114,1.067-1.3,1.3-3.621.762.381-.457.8-.572,1.182-.267-.572-.762-1.791-.343-3.659,1.22a3.116,3.116,0,0,0,.5-.915A8.39,8.39,0,0,1,22.22,36.131Zm7.241-2.325a.037.037,0,0,1,.038.038A.037.037,0,0,0,29.461,33.806ZM26.87,36.665c-.038-.191-.343-.343-.877-.419a7.566,7.566,0,0,1,2.287.114,8.495,8.495,0,0,1-2.515,1.3A10.542,10.542,0,0,1,26.87,36.665Zm-.61,2.02a8.422,8.422,0,0,1,5.26-.61c1.791.381,1.829-1.753.343-1.791A8.292,8.292,0,0,0,26.26,38.685Zm-1.677-30.3c1.22.648,1.944,1.525,1.6,1.982-.038,0-.038.038-.076.038,3.049,2.4,5.3,6.327,5.45,12.5-10.824-1.563-14.064-1.029-22.525-.457,9.033-1.982,16.465-2.058,20.238-1.525,0-.5-.038-.991-.076-1.486a27.023,27.023,0,0,0-8.309.191,20.274,20.274,0,0,1,8.156-1.639A12.878,12.878,0,0,0,25.688,10.6a3.918,3.918,0,0,1-2.4-.572c-1.258-.61-1.944-1.525-1.6-1.982S23.325,7.737,24.583,8.385Zm-3.316,5.641h0c1.486,5.336-5.717,6.136-8.8,5.869a9.017,9.017,0,0,0,2.706-1.143,5.844,5.844,0,0,1-1.41-.076c-3.964-.534-7.394-3.506-9.566-6.708A19.236,19.236,0,0,1,1.448,5.793,14.888,14.888,0,0,1,1.258,0,17.584,17.584,0,0,0,3.773,5.26a13.267,13.267,0,0,0,9.49,4.955c.953.114,1.982.076,2.935.152a8.543,8.543,0,0,1,1.982.229h.038A4.188,4.188,0,0,1,21.267,14.026Zm8.271-2.439a14.326,14.326,0,0,0,6.555-5.3,11,11,0,0,1-3.849,7.928c-.229.229-.5.419-.762.648A12.638,12.638,0,0,0,29.538,11.586ZM7.546,29.309C4.459,30.681,2.4,35.255,0,37.5c2.592,2.477,6.632,3.278,10.214,3.011a32.3,32.3,0,0,1,.076-10.672c-2.02,1.829-3.849,5.069-3.7,7.813C5.3,35.216,6.1,31.672,7.546,29.309Zm6.136,1.372c3.163,3.621,4.8,2.515,4.878-3.392a8.707,8.707,0,0,1-5.069,3.43ZM8.995,28.166C12.882,29.233,16.884,27.9,21,24.2q-5.488-3.087-14.712,2.706a13.787,13.787,0,0,0,8.69-2.211A8.945,8.945,0,0,1,8.995,28.166Z" fill="#8d6752" fill-rule="evenodd"/>
</svg>
